<?xml version="1.0" standalone="no"?>
<!DOCTYPE svg PUBLIC "-//W3C//DTD SVG 20010904//EN"
 "http://www.w3.org/TR/2001/REC-SVG-20010904/DTD/svg10.dtd">
<svg version="1.0" xmlns="http://www.w3.org/2000/svg"
 width="225.000000pt" height="225.000000pt" viewBox="0 0 225.000000 225.000000"
 preserveAspectRatio="xMidYMid meet">

<g transform="translate(0.000000,225.000000) scale(0.100000,-0.100000)"
fill="#000000" stroke="none">
<path d="M602 1383 c3 -160 4 -168 23 -168 19 0 20 8 23 168 l2 167 -25 0 -25
0 2 -167z"/>
<path d="M770 1531 c0 -11 -25 -47 -56 -80 -31 -34 -52 -61 -46 -61 6 0 34
-37 63 -82 29 -46 57 -86 63 -90 15 -11 46 -10 46 1 0 15 -117 188 -132 194
-8 3 11 28 57 71 l70 65 -32 1 c-26 0 -33 -4 -33 -19z"/>
<path d="M960 1530 c-9 -16 -8 -18 5 -14 19 8 30 -19 76 -179 25 -86 39 -119
53 -123 10 -3 22 -2 26 3 7 7 -77 293 -94 322 -12 18 -54 13 -66 -9z"/>
<path d="M1203 1533 c9 -11 21 -60 30 -124 8 -58 22 -122 32 -142 30 -64 96
-59 94 7 l-1 31 -7 -30 c-3 -16 -11 -29 -16 -29 -19 2 -35 53 -51 165 -9 63
-21 120 -27 127 -5 6 -23 12 -40 12 -28 0 -29 -1 -14 -17z"/>
<path d="M1341 1537 c-8 -11 -6 -13 12 -13 21 1 23 -6 42 -144 11 -80 24 -151
28 -157 9 -15 33 -17 41 -5 6 11 -32 281 -44 310 -11 25 -60 31 -79 9z"/>
<path d="M1579 1529 c-9 -18 -8 -20 9 -15 17 6 24 -9 64 -141 43 -142 64 -181
87 -158 9 9 -71 290 -92 323 -13 20 -55 14 -68 -9z"/>
<path d="M921 1414 c-6 -22 -22 -74 -35 -117 -26 -82 -23 -94 21 -85 16 3 19
18 24 118 3 63 5 117 3 119 -1 1 -7 -14 -13 -35z"/>
<path d="M1521 1343 c-18 -60 -32 -112 -32 -118 1 -5 15 -10 31 -10 l30 0 4
118 c3 64 3 117 2 117 -1 0 -17 -48 -35 -107z"/>
<path d="M1164 1335 c-11 -60 -19 -113 -17 -117 5 -9 83 -11 83 -3 0 3 -8 18
-17 32 -12 18 -20 55 -23 112 l-5 86 -21 -110z"/>
<path d="M967 953 c-4 -3 -7 -18 -7 -31 0 -32 11 -23 14 12 3 28 3 30 -7 19z"/>
<path d="M1127 953 c-4 -3 -7 -18 -7 -31 0 -32 11 -23 14 12 3 28 3 30 -7 19z"/>
<path d="M1237 953 c-4 -3 -7 -18 -7 -31 0 -32 13 -20 15 13 1 28 1 28 -8 18z"/>
<path d="M1021 940 c-1 -21 16 -46 26 -37 4 5 3 11 -3 15 -6 4 -14 14 -17 22
-5 13 -5 13 -6 0z"/>
<path d="M1050 940 c0 -5 5 -10 10 -10 6 0 10 -7 10 -15 0 -20 16 -19 24 1 9
23 7 31 -4 14 -8 -12 -10 -12 -16 3 -7 18 -24 23 -24 7z"/>
<path d="M1182 925 c0 -16 2 -22 5 -12 2 9 2 23 0 30 -3 6 -5 -1 -5 -18z"/>
<path d="M1266 934 c-4 -9 -4 -19 -1 -22 2 -3 7 3 11 12 4 9 4 19 1 22 -2 3
-7 -3 -11 -12z"/>
<path d="M1302 927 c7 -14 15 -21 17 -14 2 7 9 19 15 27 9 13 9 13 -5 3 -12
-10 -18 -10 -27 -1 -9 9 -8 4 0 -15z"/>
</g>
</svg>
